<mxfile host="app.diagrams.net" modified="2022-01-12T09:15:48.386Z" agent="5.0 (Macintosh; Intel Mac OS X 10_15_7) AppleWebKit/537.36 (KHTML, like Gecko) Chrome/96.0.4664.55 Safari/537.36" etag="BcjxBU-2td-oqd3-dmw1" version="16.1.0" type="github">
  <diagram id="6FCfzbj7um3eukhH5CSH" name="Page-1">
    <mxGraphModel dx="1298" dy="696" grid="1" gridSize="10" guides="1" tooltips="1" connect="1" arrows="1" fold="1" page="1" pageScale="1" pageWidth="827" pageHeight="1169" math="0" shadow="0">
      <root>
        <mxCell id="0" />
        <mxCell id="1" parent="0" />
        <mxCell id="XBYKoYgzvWYRExYEu6Ma-8" value="" style="rounded=1;whiteSpace=wrap;html=1;shadow=0;sketch=0;dashed=1;glass=0;" vertex="1" parent="1">
          <mxGeometry x="245" y="160" width="505" height="390" as="geometry" />
        </mxCell>
        <mxCell id="XBYKoYgzvWYRExYEu6Ma-16" style="edgeStyle=orthogonalEdgeStyle;rounded=0;orthogonalLoop=1;jettySize=auto;html=1;exitX=1;exitY=0.5;exitDx=0;exitDy=0;entryX=0;entryY=0.5;entryDx=0;entryDy=0;sketch=1;shadow=1;" edge="1" parent="1" source="XBYKoYgzvWYRExYEu6Ma-1" target="XBYKoYgzvWYRExYEu6Ma-10">
          <mxGeometry relative="1" as="geometry" />
        </mxCell>
        <mxCell id="XBYKoYgzvWYRExYEu6Ma-1" value="API&amp;nbsp;" style="whiteSpace=wrap;html=1;aspect=fixed;fillColor=#dae8fc;strokeColor=#6c8ebf;sketch=1;" vertex="1" parent="1">
          <mxGeometry x="290" y="220" width="80" height="80" as="geometry" />
        </mxCell>
        <mxCell id="XBYKoYgzvWYRExYEu6Ma-2" value="业务系统" style="rounded=0;whiteSpace=wrap;html=1;fillColor=#d5e8d4;strokeColor=#82b366;sketch=1;shadow=1;" vertex="1" parent="1">
          <mxGeometry x="20" y="230" width="120" height="60" as="geometry" />
        </mxCell>
        <mxCell id="XBYKoYgzvWYRExYEu6Ma-3" value="" style="endArrow=classic;html=1;rounded=0;exitX=1;exitY=0.5;exitDx=0;exitDy=0;" edge="1" parent="1" source="XBYKoYgzvWYRExYEu6Ma-2">
          <mxGeometry relative="1" as="geometry">
            <mxPoint x="190" y="259" as="sourcePoint" />
            <mxPoint x="290" y="259" as="targetPoint" />
          </mxGeometry>
        </mxCell>
        <mxCell id="XBYKoYgzvWYRExYEu6Ma-4" value="" style="shape=message;html=1;outlineConnect=0;shadow=1;sketch=1;" vertex="1" parent="XBYKoYgzvWYRExYEu6Ma-3">
          <mxGeometry width="20" height="14" relative="1" as="geometry">
            <mxPoint x="-10" y="-7" as="offset" />
          </mxGeometry>
        </mxCell>
        <mxCell id="XBYKoYgzvWYRExYEu6Ma-6" value="多种方式&lt;br&gt;API / Dubbo /.." style="text;html=1;strokeColor=none;fillColor=none;align=center;verticalAlign=middle;whiteSpace=wrap;rounded=0;shadow=1;sketch=1;" vertex="1" parent="1">
          <mxGeometry x="166" y="194" width="100" height="40" as="geometry" />
        </mxCell>
        <mxCell id="XBYKoYgzvWYRExYEu6Ma-10" value="Core Server" style="whiteSpace=wrap;html=1;aspect=fixed;fillColor=#dae8fc;strokeColor=#6c8ebf;sketch=1;" vertex="1" parent="1">
          <mxGeometry x="440" y="220" width="80" height="80" as="geometry" />
        </mxCell>
        <mxCell id="XBYKoYgzvWYRExYEu6Ma-19" style="edgeStyle=orthogonalEdgeStyle;rounded=0;orthogonalLoop=1;jettySize=auto;html=1;exitX=1;exitY=0.5;exitDx=0;exitDy=0;entryX=0;entryY=0.5;entryDx=0;entryDy=0;shadow=1;sketch=1;" edge="1" parent="1" source="XBYKoYgzvWYRExYEu6Ma-11" target="XBYKoYgzvWYRExYEu6Ma-17">
          <mxGeometry relative="1" as="geometry">
            <mxPoint x="750" y="220" as="targetPoint" />
          </mxGeometry>
        </mxCell>
        <mxCell id="XBYKoYgzvWYRExYEu6Ma-11" value="通讯机A" style="whiteSpace=wrap;html=1;aspect=fixed;fillColor=#dae8fc;strokeColor=#6c8ebf;sketch=1;" vertex="1" parent="1">
          <mxGeometry x="640" y="200" width="60" height="60" as="geometry" />
        </mxCell>
        <mxCell id="XBYKoYgzvWYRExYEu6Ma-20" style="edgeStyle=orthogonalEdgeStyle;rounded=0;orthogonalLoop=1;jettySize=auto;html=1;exitX=1;exitY=0.5;exitDx=0;exitDy=0;entryX=0;entryY=0.5;entryDx=0;entryDy=0;sketch=1;shadow=1;" edge="1" parent="1" source="XBYKoYgzvWYRExYEu6Ma-12" target="XBYKoYgzvWYRExYEu6Ma-18">
          <mxGeometry relative="1" as="geometry" />
        </mxCell>
        <mxCell id="XBYKoYgzvWYRExYEu6Ma-12" value="通讯机B" style="whiteSpace=wrap;html=1;aspect=fixed;fillColor=#dae8fc;strokeColor=#6c8ebf;sketch=1;" vertex="1" parent="1">
          <mxGeometry x="640" y="260" width="60" height="60" as="geometry" />
        </mxCell>
        <mxCell id="XBYKoYgzvWYRExYEu6Ma-13" style="edgeStyle=orthogonalEdgeStyle;rounded=0;orthogonalLoop=1;jettySize=auto;html=1;sketch=1;shadow=1;" edge="1" parent="1" target="XBYKoYgzvWYRExYEu6Ma-11">
          <mxGeometry relative="1" as="geometry">
            <mxPoint x="520" y="260" as="sourcePoint" />
          </mxGeometry>
        </mxCell>
        <mxCell id="XBYKoYgzvWYRExYEu6Ma-15" style="edgeStyle=orthogonalEdgeStyle;rounded=0;orthogonalLoop=1;jettySize=auto;html=1;exitX=1;exitY=0.5;exitDx=0;exitDy=0;entryX=0;entryY=0.5;entryDx=0;entryDy=0;sketch=1;shadow=1;" edge="1" parent="1" source="XBYKoYgzvWYRExYEu6Ma-10" target="XBYKoYgzvWYRExYEu6Ma-12">
          <mxGeometry relative="1" as="geometry">
            <mxPoint x="530" y="270" as="sourcePoint" />
            <mxPoint x="650" y="240" as="targetPoint" />
          </mxGeometry>
        </mxCell>
        <mxCell id="XBYKoYgzvWYRExYEu6Ma-17" value="渠道商A" style="rounded=0;whiteSpace=wrap;html=1;fillColor=#ffe6cc;strokeColor=#d79b00;sketch=1;shadow=1;" vertex="1" parent="1">
          <mxGeometry x="810" y="200" width="120" height="60" as="geometry" />
        </mxCell>
        <mxCell id="XBYKoYgzvWYRExYEu6Ma-18" value="渠道商B" style="rounded=0;whiteSpace=wrap;html=1;fillColor=#ffe6cc;strokeColor=#d79b00;sketch=1;shadow=1;" vertex="1" parent="1">
          <mxGeometry x="810" y="260" width="120" height="60" as="geometry" />
        </mxCell>
        <mxCell id="XBYKoYgzvWYRExYEu6Ma-22" value="" style="edgeStyle=orthogonalEdgeStyle;shape=link;rounded=0;sketch=1;orthogonalLoop=1;jettySize=auto;html=1;shadow=1;" edge="1" parent="1" source="XBYKoYgzvWYRExYEu6Ma-21" target="XBYKoYgzvWYRExYEu6Ma-10">
          <mxGeometry relative="1" as="geometry" />
        </mxCell>
        <mxCell id="XBYKoYgzvWYRExYEu6Ma-21" value="&amp;nbsp;Manage Server" style="whiteSpace=wrap;html=1;aspect=fixed;fillColor=#dae8fc;strokeColor=#6c8ebf;sketch=1;" vertex="1" parent="1">
          <mxGeometry x="440" y="330" width="80" height="80" as="geometry" />
        </mxCell>
        <mxCell id="XBYKoYgzvWYRExYEu6Ma-23" value="业务人员" style="shape=umlActor;verticalLabelPosition=bottom;verticalAlign=top;html=1;outlineConnect=0;rounded=1;shadow=0;glass=0;dashed=1;sketch=1;" vertex="1" parent="1">
          <mxGeometry x="65" y="340" width="30" height="60" as="geometry" />
        </mxCell>
        <mxCell id="XBYKoYgzvWYRExYEu6Ma-26" value="" style="endArrow=classic;html=1;rounded=0;shadow=1;sketch=1;" edge="1" parent="1">
          <mxGeometry relative="1" as="geometry">
            <mxPoint x="140" y="370" as="sourcePoint" />
            <mxPoint x="290" y="370" as="targetPoint" />
          </mxGeometry>
        </mxCell>
        <mxCell id="XBYKoYgzvWYRExYEu6Ma-27" value="人工后台" style="edgeLabel;resizable=0;html=1;align=center;verticalAlign=middle;rounded=1;shadow=0;glass=0;dashed=1;sketch=1;" connectable="0" vertex="1" parent="XBYKoYgzvWYRExYEu6Ma-26">
          <mxGeometry relative="1" as="geometry">
            <mxPoint x="-4" as="offset" />
          </mxGeometry>
        </mxCell>
        <mxCell id="XBYKoYgzvWYRExYEu6Ma-30" style="edgeStyle=orthogonalEdgeStyle;rounded=0;sketch=1;orthogonalLoop=1;jettySize=auto;html=1;exitX=1;exitY=0.5;exitDx=0;exitDy=0;shadow=1;" edge="1" parent="1" source="XBYKoYgzvWYRExYEu6Ma-29" target="XBYKoYgzvWYRExYEu6Ma-21">
          <mxGeometry relative="1" as="geometry" />
        </mxCell>
        <mxCell id="XBYKoYgzvWYRExYEu6Ma-29" value="业务系统&lt;br&gt;网页" style="whiteSpace=wrap;html=1;aspect=fixed;fillColor=#65DDF0;strokeColor=#10739e;sketch=1;" vertex="1" parent="1">
          <mxGeometry x="290" y="330" width="80" height="80" as="geometry" />
        </mxCell>
        <mxCell id="XBYKoYgzvWYRExYEu6Ma-32" value="" style="edgeStyle=orthogonalEdgeStyle;rounded=0;sketch=1;orthogonalLoop=1;jettySize=auto;html=1;shadow=1;" edge="1" parent="1" source="XBYKoYgzvWYRExYEu6Ma-31" target="XBYKoYgzvWYRExYEu6Ma-21">
          <mxGeometry relative="1" as="geometry" />
        </mxCell>
        <mxCell id="XBYKoYgzvWYRExYEu6Ma-31" value="管理系统&lt;br&gt;网页" style="whiteSpace=wrap;html=1;aspect=fixed;fillColor=#65DDF0;strokeColor=#10739e;sketch=1;" vertex="1" parent="1">
          <mxGeometry x="440" y="440" width="80" height="80" as="geometry" />
        </mxCell>
        <mxCell id="XBYKoYgzvWYRExYEu6Ma-34" value="技术人员" style="shape=umlActor;verticalLabelPosition=bottom;verticalAlign=top;html=1;outlineConnect=0;rounded=1;shadow=0;glass=0;dashed=1;sketch=1;" vertex="1" parent="1">
          <mxGeometry x="465" y="630" width="30" height="60" as="geometry" />
        </mxCell>
        <mxCell id="XBYKoYgzvWYRExYEu6Ma-35" value="" style="endArrow=classic;html=1;rounded=0;shadow=1;sketch=1;entryX=0.5;entryY=1;entryDx=0;entryDy=0;" edge="1" parent="1" target="XBYKoYgzvWYRExYEu6Ma-31">
          <mxGeometry relative="1" as="geometry">
            <mxPoint x="480" y="610" as="sourcePoint" />
            <mxPoint x="300" y="380" as="targetPoint" />
          </mxGeometry>
        </mxCell>
        <mxCell id="XBYKoYgzvWYRExYEu6Ma-36" value="管理后台" style="edgeLabel;resizable=0;html=1;align=center;verticalAlign=middle;rounded=1;shadow=0;glass=0;dashed=1;sketch=1;" connectable="0" vertex="1" parent="XBYKoYgzvWYRExYEu6Ma-35">
          <mxGeometry relative="1" as="geometry">
            <mxPoint x="-4" as="offset" />
          </mxGeometry>
        </mxCell>
      </root>
    </mxGraphModel>
  </diagram>
</mxfile>
